<mxfile host="app.diagrams.net" modified="2022-11-07T02:50:33.890Z" agent="5.0 (Windows NT 10.0; Win64; x64) AppleWebKit/537.36 (KHTML, like Gecko) Chrome/107.0.0.0 Safari/537.36" etag="YaImWW4y3mpVrwo9-2JP" version="20.5.3" type="github">
  <diagram name="Page-1" id="aaaa8250-4180-3840-79b5-4cada1eebb92">
    <mxGraphModel dx="2628" dy="-147" grid="1" gridSize="10" guides="1" tooltips="1" connect="1" arrows="1" fold="1" page="1" pageScale="1" pageWidth="850" pageHeight="1100" background="none" math="0" shadow="0">
      <root>
        <mxCell id="0" />
        <mxCell id="1" parent="0" />
        <mxCell id="G8vrqa7yW1IuufQoo15r-32" value="" style="group" vertex="1" connectable="0" parent="1">
          <mxGeometry x="500" y="1230" width="1100" height="629" as="geometry" />
        </mxCell>
        <mxCell id="G8vrqa7yW1IuufQoo15r-33" value="" style="verticalLabelPosition=bottom;html=1;verticalAlign=top;strokeWidth=1;align=center;outlineConnect=0;dashed=0;outlineConnect=0;shape=mxgraph.aws3d.dashedArrowlessEdge2;strokeColor=#2D6195;aspect=fixed;" vertex="1" parent="G8vrqa7yW1IuufQoo15r-32">
          <mxGeometry x="580.3399999999999" width="519.66" height="296.01" as="geometry" />
        </mxCell>
        <mxCell id="G8vrqa7yW1IuufQoo15r-34" value="" style="verticalLabelPosition=bottom;html=1;verticalAlign=top;strokeWidth=1;align=center;outlineConnect=0;dashed=0;outlineConnect=0;shape=mxgraph.aws3d.dashedArrowlessEdge2;strokeColor=#2D6195;aspect=fixed;" vertex="1" parent="G8vrqa7yW1IuufQoo15r-32">
          <mxGeometry y="335.5999999999999" width="515.08" height="293.4" as="geometry" />
        </mxCell>
        <mxCell id="G8vrqa7yW1IuufQoo15r-35" value="" style="verticalLabelPosition=bottom;html=1;verticalAlign=top;strokeWidth=1;align=center;outlineConnect=0;dashed=0;outlineConnect=0;shape=mxgraph.aws3d.dashedArrowlessEdge2;strokeColor=#2D6195;aspect=fixed;flipV=1;" vertex="1" parent="G8vrqa7yW1IuufQoo15r-32">
          <mxGeometry width="575.84" height="328.01" as="geometry" />
        </mxCell>
        <mxCell id="G8vrqa7yW1IuufQoo15r-36" value="" style="verticalLabelPosition=bottom;html=1;verticalAlign=top;strokeWidth=1;align=center;outlineConnect=0;dashed=0;outlineConnect=0;shape=mxgraph.aws3d.dashedArrowlessEdge2;strokeColor=#2D6195;aspect=fixed;flipV=1;" vertex="1" parent="G8vrqa7yW1IuufQoo15r-32">
          <mxGeometry x="514.16" y="296.01" width="575.84" height="328.01" as="geometry" />
        </mxCell>
        <mxCell id="G8vrqa7yW1IuufQoo15r-43" value="" style="verticalLabelPosition=bottom;html=1;verticalAlign=top;strokeWidth=1;align=center;outlineConnect=0;dashed=0;outlineConnect=0;shape=mxgraph.aws3d.arrowNW;fillColor=#000000;aspect=fixed;flipV=0;flipH=1;" vertex="1" parent="G8vrqa7yW1IuufQoo15r-32">
          <mxGeometry x="534.84" y="160" width="45.5" height="26" as="geometry" />
        </mxCell>
        <mxCell id="G8vrqa7yW1IuufQoo15r-44" value="" style="verticalLabelPosition=bottom;html=1;verticalAlign=top;strokeWidth=1;align=center;outlineConnect=0;dashed=0;outlineConnect=0;shape=mxgraph.aws3d.arrowlessNE;fillColor=#000000;aspect=fixed;" vertex="1" parent="G8vrqa7yW1IuufQoo15r-32">
          <mxGeometry x="490" y="180" width="55.76" height="31.76" as="geometry" />
        </mxCell>
        <mxCell id="G8vrqa7yW1IuufQoo15r-40" value="" style="verticalLabelPosition=bottom;html=1;verticalAlign=top;strokeWidth=1;align=center;outlineConnect=0;dashed=0;outlineConnect=0;shape=mxgraph.aws3d.secureConnection;fillColor=#000000;strokeColor=#ffffff;aspect=fixed;" vertex="1" parent="G8vrqa7yW1IuufQoo15r-32">
          <mxGeometry x="503.08000000000004" y="169" width="56.99999999999999" height="34" as="geometry" />
        </mxCell>
        <mxCell id="G8vrqa7yW1IuufQoo15r-46" value="" style="verticalLabelPosition=bottom;html=1;verticalAlign=top;strokeWidth=1;align=center;outlineConnect=0;dashed=0;outlineConnect=0;shape=mxgraph.aws3d.arrowlessNE;fillColor=#000000;aspect=fixed;" vertex="1" parent="G8vrqa7yW1IuufQoo15r-32">
          <mxGeometry x="640" y="285.9999999999999" width="55.76" height="31.76" as="geometry" />
        </mxCell>
        <mxCell id="G8vrqa7yW1IuufQoo15r-47" value="" style="verticalLabelPosition=bottom;html=1;verticalAlign=top;strokeWidth=1;align=center;outlineConnect=0;dashed=0;outlineConnect=0;shape=mxgraph.aws3d.arrowNW;fillColor=#000000;aspect=fixed;flipV=0;flipH=1;" vertex="1" parent="G8vrqa7yW1IuufQoo15r-32">
          <mxGeometry x="695.7600000000002" y="260" width="45.5" height="26" as="geometry" />
        </mxCell>
        <mxCell id="G8vrqa7yW1IuufQoo15r-45" value="" style="verticalLabelPosition=bottom;html=1;verticalAlign=top;strokeWidth=1;align=center;outlineConnect=0;dashed=0;outlineConnect=0;shape=mxgraph.aws3d.secureConnection;fillColor=#000000;strokeColor=#ffffff;aspect=fixed;" vertex="1" parent="G8vrqa7yW1IuufQoo15r-32">
          <mxGeometry x="670" y="267.5" width="56.99999999999999" height="34" as="geometry" />
        </mxCell>
        <mxCell id="G8vrqa7yW1IuufQoo15r-29" value="" style="verticalLabelPosition=bottom;html=1;verticalAlign=top;strokeWidth=1;align=center;outlineConnect=0;dashed=0;outlineConnect=0;shape=mxgraph.aws3d.dynamoDb;fillColor=#ECECEC;strokeColor=#5E5E5E;aspect=fixed;" vertex="1" parent="G8vrqa7yW1IuufQoo15r-32">
          <mxGeometry x="737" y="150" width="112.36" height="130" as="geometry" />
        </mxCell>
        <mxCell id="G8vrqa7yW1IuufQoo15r-49" value="" style="verticalLabelPosition=bottom;html=1;verticalAlign=top;strokeWidth=1;align=center;outlineConnect=0;dashed=0;outlineConnect=0;shape=mxgraph.aws3d.arrowNE;fillColor=#000000;aspect=fixed;" vertex="1" parent="G8vrqa7yW1IuufQoo15r-32">
          <mxGeometry x="480" y="317.76" width="45.5" height="26" as="geometry" />
        </mxCell>
        <mxCell id="G8vrqa7yW1IuufQoo15r-31" value="" style="group" vertex="1" connectable="0" parent="1">
          <mxGeometry x="-225" y="1665" width="1100" height="629" as="geometry" />
        </mxCell>
        <mxCell id="G8vrqa7yW1IuufQoo15r-20" value="" style="verticalLabelPosition=bottom;html=1;verticalAlign=top;strokeWidth=1;align=center;outlineConnect=0;dashed=0;outlineConnect=0;shape=mxgraph.aws3d.dashedArrowlessEdge2;strokeColor=#2D6195;aspect=fixed;" vertex="1" parent="G8vrqa7yW1IuufQoo15r-31">
          <mxGeometry x="580.3399999999999" width="519.66" height="296.01" as="geometry" />
        </mxCell>
        <mxCell id="G8vrqa7yW1IuufQoo15r-21" value="" style="verticalLabelPosition=bottom;html=1;verticalAlign=top;strokeWidth=1;align=center;outlineConnect=0;dashed=0;outlineConnect=0;shape=mxgraph.aws3d.dashedArrowlessEdge2;strokeColor=#2D6195;aspect=fixed;" vertex="1" parent="G8vrqa7yW1IuufQoo15r-31">
          <mxGeometry y="335.5999999999999" width="515.08" height="293.4" as="geometry" />
        </mxCell>
        <mxCell id="G8vrqa7yW1IuufQoo15r-23" value="" style="verticalLabelPosition=bottom;html=1;verticalAlign=top;strokeWidth=1;align=center;outlineConnect=0;dashed=0;outlineConnect=0;shape=mxgraph.aws3d.dashedArrowlessEdge2;strokeColor=#2D6195;aspect=fixed;flipV=1;" vertex="1" parent="G8vrqa7yW1IuufQoo15r-31">
          <mxGeometry width="575.84" height="328.01" as="geometry" />
        </mxCell>
        <mxCell id="G8vrqa7yW1IuufQoo15r-24" value="" style="verticalLabelPosition=bottom;html=1;verticalAlign=top;strokeWidth=1;align=center;outlineConnect=0;dashed=0;outlineConnect=0;shape=mxgraph.aws3d.dashedArrowlessEdge2;strokeColor=#2D6195;aspect=fixed;flipV=1;" vertex="1" parent="G8vrqa7yW1IuufQoo15r-31">
          <mxGeometry x="514.16" y="296.01" width="575.84" height="328.01" as="geometry" />
        </mxCell>
        <mxCell id="G8vrqa7yW1IuufQoo15r-11" value="" style="verticalLabelPosition=bottom;html=1;verticalAlign=top;strokeWidth=1;align=center;outlineConnect=0;dashed=0;outlineConnect=0;shape=mxgraph.aws3d.flatDoubleEdge2;strokeColor=none;fillColor=#F4B934;aspect=fixed;flipH=1;" vertex="1" parent="1">
          <mxGeometry x="230" y="1690" width="609.98" height="347.46" as="geometry" />
        </mxCell>
        <mxCell id="G8vrqa7yW1IuufQoo15r-3" value="" style="verticalLabelPosition=bottom;html=1;verticalAlign=top;strokeWidth=1;align=center;outlineConnect=0;dashed=0;outlineConnect=0;shape=mxgraph.aws3d.spot2;fillColor=#F4B934;strokeColor=none;aspect=fixed;" vertex="1" parent="1">
          <mxGeometry x="50" y="1924" width="405.33" height="235.35" as="geometry" />
        </mxCell>
        <mxCell id="G8vrqa7yW1IuufQoo15r-1" value="" style="verticalLabelPosition=bottom;html=1;verticalAlign=top;strokeWidth=1;align=center;outlineConnect=0;dashed=0;outlineConnect=0;shape=mxgraph.aws3d.end_user;strokeColor=none;fillColor=#777777;aspect=fixed;" vertex="1" parent="1">
          <mxGeometry x="197" y="2000" width="49" height="100.46" as="geometry" />
        </mxCell>
        <mxCell id="G8vrqa7yW1IuufQoo15r-2" value="" style="verticalLabelPosition=bottom;html=1;verticalAlign=top;strokeWidth=1;align=center;outlineConnect=0;dashed=0;outlineConnect=0;shape=mxgraph.aws3d.mobile_worker;aspect=fixed;strokeColor=none;fillColor=#777777;" vertex="1" parent="1">
          <mxGeometry x="210" y="1914" width="36" height="90" as="geometry" />
        </mxCell>
        <mxCell id="G8vrqa7yW1IuufQoo15r-4" value="" style="verticalLabelPosition=bottom;html=1;verticalAlign=top;strokeWidth=1;align=center;outlineConnect=0;dashed=0;outlineConnect=0;shape=mxgraph.aws3d.client;aspect=fixed;strokeColor=none;fillColor=#777777;" vertex="1" parent="1">
          <mxGeometry x="295" y="1972.17" width="60" height="104" as="geometry" />
        </mxCell>
        <mxCell id="G8vrqa7yW1IuufQoo15r-5" value="" style="verticalLabelPosition=bottom;html=1;verticalAlign=top;strokeWidth=1;dashed=0;shape=mxgraph.aws3d.cloudfront;fillColor=#ECECEC;strokeColor=#5E5E5E;aspect=fixed;rounded=1;shadow=0;comic=0;fontSize=12;flipH=0;" vertex="1" parent="1">
          <mxGeometry x="550" y="1681.4" width="103.8" height="169.79999999999998" as="geometry" />
        </mxCell>
        <mxCell id="G8vrqa7yW1IuufQoo15r-7" value="" style="verticalLabelPosition=bottom;html=1;verticalAlign=top;strokeWidth=1;align=center;outlineConnect=0;dashed=0;outlineConnect=0;shape=mxgraph.aws3d.customerGateway;fillColor=#ECECEC;strokeColor=#5E5E5E;aspect=fixed;flipH=1;" vertex="1" parent="1">
          <mxGeometry x="338" y="1823.8" width="173.46" height="152.8" as="geometry" />
        </mxCell>
        <mxCell id="G8vrqa7yW1IuufQoo15r-26" value="" style="verticalLabelPosition=bottom;html=1;verticalAlign=top;strokeWidth=1;align=center;outlineConnect=0;dashed=0;outlineConnect=0;shape=mxgraph.aws3d.internetGateway;fillColor=#ECECEC;strokeColor=#5E5E5E;aspect=fixed;flipV=0;flipH=1;" vertex="1" parent="1">
          <mxGeometry x="750" y="1500" width="295.15" height="260" as="geometry" />
        </mxCell>
        <mxCell id="G8vrqa7yW1IuufQoo15r-27" value="" style="verticalLabelPosition=bottom;html=1;verticalAlign=top;strokeWidth=1;align=center;outlineConnect=0;dashed=0;outlineConnect=0;shape=mxgraph.aws3d.simpleDb;fillColor=#ECECEC;strokeColor=#5E5E5E;aspect=fixed;" vertex="1" parent="1">
          <mxGeometry x="1055.15" y="1280" width="123" height="133" as="geometry" />
        </mxCell>
        <mxCell id="G8vrqa7yW1IuufQoo15r-30" value="" style="verticalLabelPosition=bottom;html=1;verticalAlign=top;strokeWidth=1;align=center;outlineConnect=0;dashed=0;outlineConnect=0;shape=mxgraph.aws3d.vpcGateway;fillColor=#ECECEC;strokeColor=#5E5E5E;aspect=fixed;" vertex="1" parent="1">
          <mxGeometry x="970" y="1440" width="170.28" height="150" as="geometry" />
        </mxCell>
        <mxCell id="G8vrqa7yW1IuufQoo15r-37" value="" style="verticalLabelPosition=bottom;html=1;verticalAlign=top;strokeWidth=1;align=center;outlineConnect=0;dashed=0;outlineConnect=0;shape=mxgraph.aws3d.dashedArrowlessEdge2;strokeColor=#2D6195;aspect=fixed;" vertex="1" parent="1">
          <mxGeometry x="560" y="1810" width="31.6" height="18" as="geometry" />
        </mxCell>
        <mxCell id="G8vrqa7yW1IuufQoo15r-38" value="" style="verticalLabelPosition=bottom;html=1;verticalAlign=top;strokeWidth=1;align=center;outlineConnect=0;dashed=0;outlineConnect=0;shape=mxgraph.aws3d.dashedEdgeDouble2;strokeColor=#2D6195;aspect=fixed;" vertex="1" parent="1">
          <mxGeometry x="1150" y="1391.39" width="85.34" height="48.61" as="geometry" />
        </mxCell>
        <mxCell id="G8vrqa7yW1IuufQoo15r-50" value="" style="verticalLabelPosition=bottom;html=1;verticalAlign=top;strokeWidth=1;align=center;outlineConnect=0;dashed=0;outlineConnect=0;shape=mxgraph.aws3d.arrowNE;fillColor=#000000;aspect=fixed;" vertex="1" parent="1">
          <mxGeometry x="490" y="1830" width="78.75" height="45" as="geometry" />
        </mxCell>
        <mxCell id="G8vrqa7yW1IuufQoo15r-51" value="" style="verticalLabelPosition=bottom;html=1;verticalAlign=top;strokeWidth=1;align=center;outlineConnect=0;dashed=0;outlineConnect=0;shape=mxgraph.aws3d.arrowNE;fillColor=#000000;aspect=fixed;" vertex="1" parent="1">
          <mxGeometry x="660" y="1690" width="172.9" height="98.8" as="geometry" />
        </mxCell>
        <mxCell id="G8vrqa7yW1IuufQoo15r-53" value="" style="verticalLabelPosition=bottom;html=1;verticalAlign=top;strokeWidth=1;align=center;outlineConnect=0;dashed=0;outlineConnect=0;shape=mxgraph.aws3d.arrowNE;fillColor=#000000;aspect=fixed;" vertex="1" parent="1">
          <mxGeometry x="326" y="1938.6" width="58.75" height="33.57" as="geometry" />
        </mxCell>
      </root>
    </mxGraphModel>
  </diagram>
</mxfile>
